<?xml version="1.0" encoding="utf-8"?>
<!-- Generator: Adobe Illustrator 17.0.0, SVG Export Plug-In . SVG Version: 6.00 Build 0)  -->
<!DOCTYPE svg PUBLIC "-//W3C//DTD SVG 1.1//EN" "http://www.w3.org/Graphics/SVG/1.1/DTD/svg11.dtd">
<svg version="1.1" id="Layer_1" xmlns="http://www.w3.org/2000/svg" xmlns:xlink="http://www.w3.org/1999/xlink" x="0px" y="0px"
	 width="539.121px" height="96.436px" viewBox="0 0 539.121 96.436" enable-background="new 0 0 539.121 96.436"
	 xml:space="preserve">
<g>
	<g>
		<g>
			<g>
				<g>
					<path fill="#202020" d="M533.326,90.374c0.344,0.645,1.125,0.28,0.971-1.5l-1.324-1.265L533.326,90.374z"/>
					<path fill="#202020" d="M535.778,78.391c-0.642-2.094-1.77-4.51-2.986-3.153c1.272,2.074,0.741,2.576,2.256,4.809
						c0.154,1.783-0.425,3.111-0.912,2.81c0.34,0.63-0.291,2.769,0.54,3.728c1.025-2.319,1.066-5.257,0.22-8.325
						C535.188,77.602,535.534,78.24,535.778,78.391z"/>
					<path fill="#202020" d="M434.3,4.093l1.122,0.157C435.116,4.163,434.732,4.115,434.3,4.093z"/>
					<path fill="#202020" d="M326.411,3.366c0.821-0.031,1.165-0.163,1.206-0.283C326.855,3.17,326.228,3.251,326.411,3.366z"/>
					<path fill="#202020" d="M307.991,1.907c0.395,0.033,0.728,0.06,1.086,0.09C308.663,1.875,308.246,1.808,307.991,1.907z"/>
					<path fill="#202020" d="M434.3,4.093l-2.882-0.416C431.216,4.108,432.895,3.997,434.3,4.093z"/>
					<path fill="#202020" d="M532.584,54.379c0.064,0.604,0.188,1.106,0.349,1.565c-0.058-0.495-0.106-0.975-0.141-1.47
						C532.721,54.447,532.659,54.424,532.584,54.379z"/>
					<path fill="#202020" d="M481.861,3.02l0.876-0.002c0.258-0.15,0.5-0.333,0.728-0.538L481.861,3.02z"/>
					<path fill="#202020" d="M518.361,2.816c-0.825-0.049-1.113,1.075-1.429,1.566c0.466-0.463,1.076-0.684,1.8-0.77
						C518.746,3.398,518.638,3.143,518.361,2.816z"/>
					<path fill="#202020" d="M537.141,46.199l0.154,1.027C537.248,46.959,537.203,46.508,537.141,46.199z"/>
					<path fill="#202020" d="M455.736,2.776c-0.061-0.167-0.192-0.314-0.333-0.401C455.404,2.516,455.535,2.65,455.736,2.776z"/>
					<path fill="#202020" d="M493.678,85.096c-0.029,0.08,0.012,0.131,0.003,0.2C493.893,85.183,493.958,85.103,493.678,85.096z"/>
					<path fill="#202020" d="M535.987,90.665l-0.586,0.06c-0.063,0.213-0.127,0.422-0.127,0.63L535.987,90.665z"/>
					<path fill="#202020" d="M274.28,0.467c0.065,0.009,0.088,0.013,0.15,0.022C275.316,0.36,274.814,0.383,274.28,0.467z"/>
					<path fill="#202020" d="M1.819,47.616c1.005-3.506,1.29,5.706,2.407,0.427C3.786,48.535,2.472,43.246,1.819,47.616z"/>
					<path fill="#202020" d="M532.732,53.433c-0.013-0.493-0.022-0.994-0.011-1.496C532.684,52.619,532.687,53.078,532.732,53.433z"
						/>
					<path fill="#202020" d="M4.226,48.044h0.009l0.106-0.545C4.293,47.724,4.267,47.851,4.226,48.044z"/>
					<path fill="#202020" d="M196.604,1.143c0.159,0.198,0.469,0.348,0.792,0.492C197.37,1.52,197.191,1.379,196.604,1.143z"/>
					<path fill="#202020" d="M254.471,2.742l-1.432-0.15C253.607,2.694,254.067,2.73,254.471,2.742z"/>
					<path fill="#202020" d="M166.559,2.73c-0.779-0.086-1.043-0.241-2.106-0.09c0.099,0.057,0.196,0.097,0.323,0.137
						C165.161,2.623,165.673,2.551,166.559,2.73z"/>
					<path fill="#202020" d="M135.287,2.736c0.166,0.086,0.385,0.15,0.577,0.226c0.31-0.019,0.672-0.041,0.991-0.06L135.287,2.736z"
						/>
					<path fill="#202020" d="M398.638,85.637c0.685,0.316,1.111,0.665,1.444,1.01C399.6,85.848,404.194,85.563,398.638,85.637z"/>
					<path fill="#202020" d="M533.216,54.363c-0.283-0.183-0.424-0.45-0.484-0.93c0.013,0.359,0.035,0.704,0.06,1.04
						C532.96,54.565,533.118,54.585,533.216,54.363z"/>
					<path fill="#202020" d="M165.288,11.6l-4.968-0.166C161.709,11.543,163.514,11.6,165.288,11.6z"/>
					<path fill="#202020" d="M174.288,85.797l1.141-0.135C174.989,85.637,174.584,85.669,174.288,85.797z"/>
					<path fill="#202020" d="M145.575,11.6c-0.887-0.396-1.827-0.627-2.798-0.777c-0.206,0.089-0.441,0.16-0.577,0.29L145.575,11.6z
						"/>
					<path fill="#202020" d="M400.093,86.659c-0.011-0.004-0.011-0.012-0.011-0.012S400.082,86.655,400.093,86.659z"/>
					<path fill="#202020" d="M432.82,83.989c-4.735-0.032-2.224,1.446-3.228,2.294c-5.651,0.42-2.615-1.087-4.538-1.844
						c-3.529,0.392-6.234,1.748-8.866,1.69c-0.196-0.243-0.708-0.332-0.108-0.637c-3.73,1.175-11.073,0.058-15.419,1.533
						c-0.323-0.131-0.486-0.255-0.568-0.367c0.704,0.74,0.812,1.493,0.668,2.028c-2.122,0.025-3.939,0.934-4.737-0.032
						c1.301,0.028,1.409-0.361,2.018-0.663l-2.224,0.419c-2.002-1.388,3.036-0.48,3.036-1.507c-4.337,0.451-9.39,1.6-12.713,1.208
						c-0.695-1.358,7.77-0.457,3.336-1.665l5.142,0.519c-3.929-2.143,3.124,0.149-0.486-2.143
						c-6.766-0.394-7.569,0.692-14.317,0.296c-1.52,0.755,0.502,1.116-1.018,1.872c-9.593,1.356-7.551-3.416-14.604-1.606
						c-1.826,0.905-2.534,2.624-7.555,1.715l1.712-1.536c-6.551-0.152-3.74,2.208-10.6,1.175c1.219-0.604,5.149-0.509,4.158-0.692
						c-4.445-1.213-3.144,0.871-6.56,0.871l-0.708-1.36c-6.974,0.214-14.657,1.196-22.382,1.444c0.427-0.404,1.751-0.83-0.056-1.246
						c-9.742,0.68-20.796-0.166-30.193-0.973l-3.59,1.174c-0.835-0.013-1.549-0.53-0.645-0.758c-3.662-0.445-0.19,0.745-1.95,1.206
						c-2.083,0.082-2.753-0.675-1.432-1.027c-6.463,0.995-18.41,2.144-25.218,0.887l1.328-0.349
						c-5.302-0.476-5.983,2.406-10.901,1.312l0.943-0.208c-11.507-0.509-24.225,0.566-33.005-1.206
						c-1.669,1.691-11.39-0.754-12.13,1.604c-6.571-1.169-4.689-1.591-13.943-2.376c-2.471-0.108-3.684,1.473-6.739,1.719
						l-0.075-1.232l-4.148,1.293l-2.208-1.474l-2.866,0.316c1.142,0.073,2.427,0.554,2.253,0.908
						c-4.477,0.559-10.913-0.858-11.024-1.49l-10.591,1.043c0.235-0.496,2.009-0.666,3.411-0.982
						c-5.653,1.258-1.027-1.299-6.208-0.146c0.694,0.28-0.375,0.734-0.493,0.984c-2.583-0.745-8.461-0.752-12.811-0.438l0.835-0.85
						c-7.856-0.217-16.561,0.407-25.379,0.392c3.163,0.396,2.436,1.869-0.15,2.011l-1.034-1.304
						c-1.669,0.806,2.701,0.492-0.727,1.478c-3.294-0.15-2.214-1.482-0.323-1.906l-4.004,0.452c-0.235-0.389,0.704-0.594,0.948-1.09
						c-1.643,0.81-6.912-1.308-9.282,0.098l-0.226-0.388c-8.813-0.011-12.811,0.438-19.991,0.503
						c-0.14,1.125-2.948,0.875-5.087,1.784c-5.276-0.36-11.132-1.243-17.489-1.148c-4.467,0.56-1.305,0.952-3.314,1.621
						c-0.329-1.024-6.678-0.929-3.384-1.665c-7.63,0.167-9.746,0.205-19.395,1.037c1.047,0.419,2.225,0.602,1.615,0.951
						c-1.751,0.168-3.984-0.43-3.733-0.922l0.462-0.106c-3.668,0.521-7.719,0.346-11.807-0.03l-3.068-0.312l-1.529-0.17
						l-0.761-0.086l-0.19-0.021c-0.035-0.007-0.043-0.014-0.065-0.021l-0.11-0.043c-0.579-0.227-0.914-0.442-1.158-0.583
						c0.135-0.51,0.204-0.81,0.152-1.095c-0.013-0.072-0.033-0.143-0.062-0.219c-0.029-0.326-0.066-0.767-0.112-1.133
						c-0.092-0.763-0.221-1.495-0.394-2.191l0.106,0.483l-1.112-8.944c0.177-4.115,0.77,2.468,1.404-0.577
						c-1.71-9.648,0.247-15.244-0.892-23.19c3.022-6.15-0.213-21.825,1.717-30.127l-0.712,0.479
						c-0.697-2.145,0.407-2.595,0.57-4.176c-0.553,0.224-0.64,2.328-1.026,0.995c-0.032-0.788-0.064-1.578-0.096-2.37l-0.019-0.595
						l-0.005-0.148l-0.004-0.042l-0.009-0.084l-0.03-0.343c-0.036-0.465-0.053-0.954-0.055-1.432
						c0.559-0.002,1.143,0.017,1.697,0.054c1.756,0.053,3.52,0.106,5.288,0.16c3.878,0.136,7.777,0.324,11.68,0.53
						c7.806,0.411,15.628,0.891,23.33,1.157c6.815,0.191,3.868-3.682,12.46-1.983l-2.439,1.321
						c13.754-1.584,28.123,0.055,41.587-1.29c-0.803,0.305-0.825,0.701-2.14,0.696c2.843,0.96,10.516,0.047,10.564-0.736
						c2.097,0.089,0.486,0.708,1.778,1.106c2.853,0.566,7.16-1.226,8.676-0.27c0.258,0.155-0.801,0.312-1.324,0.386
						c1.859-0.465,8.661,0.118,6.881-0.989c5.054,0.528,9.667-0.492,13.698,0.163c2.628-1.238,8.651,0.596,9.485-1.155
						c-0.362,1.81,8.859,1.459,12.055,0.608c-1.07,0.547,2.778,0.567,1.525,1.324c3.646-0.025,6.988-0.361,6.352-1.291
						c6.718,2.165,13.503-1.742,17.285,1.032c10.831-0.972,20.855-1.631,30.598-2.054c-0.351,1.804-10.77,0.18-10.352,2.073
						c9.243-0.743,14.575-2.292,23.741-1.856c2.373,0.247-1.348,0.783-2.149,1.091c9.234-0.743,17.855,0.164,26.072-0.818
						c-0.023,0.168-0.91,0.352-1.747,0.489c1.62-0.058,3.766,0.266,3.583-0.556l-1.579,0.223c-2.586-1.19,6.431-2.486,6.721-3.115
						c-2.749,2.35,8.116,0.591,3.75,3.56c1.066-0.154,2.403-0.543,2.158-1.091c1.581,0.159,2.083,0.48,0.479,1.104
						c5.8-0.446,3.74-1.318,8.995-1.3c-0.019,0.398-1.079,0.551-1.623,1.018c2.66-0.773,5.334-1.549,9.775-1.213
						c-0.267,0.239,0.248,0.551-1.076,0.545c7.627-0.12,13-2.062,21.368-1.314c-2.468,1.726,2.846,0.568,3.289,2.062l4.5-0.445
						l-1.806-0.725c3.941,0.026,7.424-1.062,10.813-0.573l-2.929,0.615l7.386-0.283l-4.18-0.566c3.988-0.77-0.427-1.89,4.819-1.474
						c-1.066,0.153,3.943,0.018,5.997,0.898l-0.013,0.004c1.95-0.476,3.956-0.976,6.87-0.606c0.757,0.478-0.609,1.652-0.116,1.969
						c1.923-1.248,9.23-0.346,11.666-1.676c-0.812,0.312-0.855,1.096-0.588,1.257l1.615-1.015c1.826,0.324,2.093,0.482,1.796,1.106
						c5.492,0.186-1.744-1.894,4.773-1.078c-0.512,0.082-0.267,0.234-1.333,0.388c6.547,0.426,12.648-0.644,18.663-0.144
						c1.775,1.503-5.255,0.368-3.224,1.636c8.673-0.272,17.959-1.801,26.352-1.447l-1.564-0.166
						c1.163-2.121,6.25,1.049,10.495,0.049c-1.039,0.156-1.362,1.177-1.082,0.94c5.748,0.341,11.752-0.522,20.461-1.188
						l-1.079,0.545c3.387,0.486,8.92,0.28,12.58,0.528c1.086-0.544,3.179-0.455,1.907-1.248c11.282,3.104,21.52-1.664,31.53,0.922
						c-1.197,0.006-2.853,0.477-1.901,0.48l8.526-0.503c-0.674-0.925-1.118-0.56-2.909-1.279c1.079-0.548,3.486-0.973,5.599-0.973
						c-3.834,0.612,0.033,1.484,1.69,2c-0.278-0.283,0.29-0.596,0.15-0.884c4.454,1.644,0.747-1.86,6.827-0.752l-0.322,0.485
						c2.276-0.248,4.373-0.89,6.827-0.751c1.018,1.069-2.423,0.499-2.579,1.379c3.447-0.062,6.802-2.026,9.922-0.96
						c-1.464,0.298-3.57,0.303-5.034,0.599c3.398,1.256,3.792,0.936,6.316,1.136l-0.248-0.028l5.836,0.568l-1.487-0.341
						c4.314-2.787,8.784-0.509,14.595-2.335c-5.648,1.728-0.934,1-1.366,2.211c1.484,0.337,3.74,0.714,3.097,1.055
						c0.064-0.025,0.157-0.049,0.196-0.071l0.098-0.06c0.066-0.037,0.133-0.067,0.2-0.092c0.135-0.049,0.27-0.076,0.4-0.086
						c0.262-0.021,0.504,0.023,0.729,0.078c0.469,0.111,0.795,0.27,1.636,0.056c0.088,0.17,0.24,0.323,0.484,0.51
						c-0.39,0.369-0.038,1.601-1.018,1.645c0.153,0.653,0.323,0.606,0.516,0.264c0.193-0.322,0.408-0.963,0.652-1
						c0.333,0.709,0.398,1.407,0.338,3.235c-0.06,1.595-0.247,3.287-0.418,5.055c-0.342,3.536-0.622,7.374,0.292,11.333
						c0.753,6.827,2.068,8.09,2.724,14.426c-0.624,2.138-1.421-1.751-1.421-1.751c-0.574,3.45-0.469,6.045-0.022,9.296
						c-0.341-0.658-0.629,0.02-1.067,1.011c0.102,2.608,1.421,1.744,0.846,5.185c-0.436-0.59-1.131-1.348-1.566-2.606
						c0.358,3.074,1.087,6.11,1.438,9.293c-0.68,0.844-1.031-1.921-1.476-3.042c0.307,3.577,0.617,9.268,1.692,10.372l0.384-2.294
						c0.052,1.303-0.924,0.67-1.12-0.291c-0.844-3.065,0.373-4.421,0.765-4.594l0.25,2.266c2.288-2.328-0.367-9.103-0.234-13.666
						l1.664,1.902l-1.381-4.68c0.434-0.995,1.362-1.676,1.611,0.577c0.822-3.271-0.592-2.896,0.325-5.706
						c0.143-0.31,0.223-0.17,0.289,0.118l-0.496-3.196c0.35,0.626,1.175-0.532,0.934,1.432c0.96-5.736-1.248-9.25,0.013-11.41
						l0.102,0.479c-0.562-7.959-1.222-0.769-2.655-6.739l3.013-4.017l-1.221-0.783c0.044-0.821,0.136-2.445,0.624-2.145
						c-0.836-3.056-0.531,0.521-1.32-1.253c0.278-0.988,0.385-2.163,0.418-3.384c0.017-0.61,0.016-1.232,0.008-1.848
						c-0.009-0.641-0.018-1.276-0.027-1.886c-0.026-2.536,0.052-4.601,1.025-6.041c-0.464-0.444-0.643,0.862-0.786,1.617
						c-0.144,0.795-0.252,1.027-0.575-0.884c0.182-0.28,0.33-0.555,0.449-0.854c-0.186-0.621-1.881-0.44-3.596-0.214
						c-1.735,0.227-3.566,0.499-5.16,0.061c0.9-1.08,5.14-0.508,0.916-1.472c-2.178,1.825-7.03-0.4-10.076-0.051
						c-0.143,1.453-6.622,0.606-11.732,1.091c0.323-0.489-9.616-0.799-14.369-1.324l0.14-0.244c-0.92,1.469-5.824,1.192-9.394,1.495
						c0.14-0.879,0.783-1.226,2.717-1.619l-3.356,0.007c-0.792,0.471-1.839,0.719-4.016,0.887l0.844-1.098
						c-4.467,0.06-8.996,1.293-14.745,0.56c-0.323,1.024,4.572,2.852-1.507,3.536c-0.226-0.554-0.45-1.501,1.141-1.728
						c-0.521,0.073-1.858,0.46-2.908,0.224l2.428-0.932c-2.618-0.409-1.369,0.778-3.462,0.692c0.041-0.79-1.549-0.564-1.249-1.19
						c0.534-0.076,1.826,0.326,2.627,0.016c-2.36-0.142-5.213-0.609-6.156-1.208c0.206,0.449,0,1.064-1.728,1.166
						c-4.468,0.058-1.529-0.95-4.135-1.356c-1.082,0.549-3.932-0.02-4.007,1.161c-1.308-0.006-1.549-0.557-2.054-0.876
						c-2.312,0.52-10.799,0.148-8.194,1.404l0.593,0.083c-0.111,0.024-0.242,0.026-0.378,0.052c0.019,0,0,0,0.019,0h-0.019
						c-7.578,1.174-15.742-0.669-23.262-0.163l0.012-0.396c-4.489,0.451-9.99,0.267-13.195,1.116
						c-1.328-0.001-3.133-0.721-2.566-1.192c-3.431,0.297-3.816,0.74-8.772,0.089c3.45-0.689-1.19-0.61,3.535-0.505
						c-4.458-0.341-5.468-0.974-10.255,0.106c1.629-1.012-3.356-1.274-5.476-0.972l3.124,0.724
						c-2.383,0.148-4.466,0.058-6.583-0.028l1.145-1.331c-9.123-1.619-16.453,2.755-23.398,0.045
						c-2.413,0.931,4.955,0.655,2.797,1.744c-4.196-0.18-8.569-2.09-9.883-2.094c-5.748-0.737-5.364,1.944-11.379,1.44
						c0.769,0.474,1.496,1.741-3,2.188c-4.2-0.176-5.162-1.991-2.511-2.372c1.007-0.04,1.493,0.111,1.45,0.272
						c1.357-0.172,3.137-0.376,1.474-0.891l-0.545,0.475c-2.083-0.484-7.861-0.434-6.504-1.212
						c-3.173,0.452-1.357,0.778,0.994,1.024c-5.386-0.688-8.415-0.02-13.959-0.482c0.881,0.262,1.693,0.819,0.816,0.814
						c-8.132-0.588-3.581,0.9-9.091,1.108c-3.131-0.724,1.122-1.728-4.425-1.121c-3.387-0.49-0.717-1.26,0.629-1.646
						c-5.054,0.915-9.443-0.602-12.329-0.77L287.339,0c-1.592,0.228-2.896,0.221-4.223,0.219l1.52,0.949
						c-1.563-0.166-2.886-0.169-2.857-0.564c-1.611,0.622,1.233,1.579-1.963,2.43c-2.083-0.482-6.345,0.518-7.065-0.742
						c6.554,0.428-0.724-1.266,4.823-1.469c-1.07,0.15-2.375,0.144-3.943-0.022c-0.235-0.141,0.222-0.261,0.649-0.333
						c-6.271-1.126-2.882,1.425-9.381,1.396c0.825-0.71-1.507-1.347-2.567-1.195c2.619,0.014,1.253,1.184-1.15,1.728
						c-4.167-0.553-4.529,0.411-6.711,0.347l2.491,0.26c-0.844,0.71-2.928,0.617-5.832,0.841c-0.248-0.553,2.638-0.381,1.601-0.624
						c-3.225,1.248-7.288-1.292-11.785-0.451c-2.083-0.48-0.202-1.334-2.031-1.66c-5.04,0.921-5.458-0.973-10.757-0.212
						c1.527,0.954,1.794,0.721-1.937,1.651l8.709-0.672l-5.589,1.388c2.628,0.014,5.547-0.6,7.121-0.438
						c-2.663,0.778-2.389,0.541-1.131,1.333c-3.597-1.432-7.131,0.834-11.288-0.133l0.127-2.362
						c-6.25-1.054-11.105,1.212-19.222,0.618l2.608,0.41c-1.088,0.938-5.011,0.131-7.639,0.512c0.244-0.79-1.398-1.077-2.52-1.568
						c0.136,0.586-5.941-0.054-6.678,1.524l-3.623-1.04c-6.554-0.426-7.479,2.25-13.779,1.981c1.898-0.858-0.966-1.418,3.255-2.032
						c-2.104-0.008-3.995-0.152-4.028,0.394c-1.229-0.494-5.832,1.064-7.766,0.314c-0.887,0.347-1.177,1.174-3.538,1.108
						c-0.258-0.16,0.009-0.39,0.009-0.39c-0.009,0.39-3.697,0.53-1.633,1.404c-6.479-2.464-18.109,0.18-23.75-1.937
						c-4.59,0.265-10.121,0.519-14.288,0.576c0.267-0.236,0.013-0.394,0.801-0.312c-5.748-0.734-3.534,2.268-10.076,1.447
						c-3.342-1.276,3.474-0.69,1.39-1.174c-0.907-2.599-7.895,0.354-12.297-1.162l1.066-0.153c-3.364-0.883-8.21,0.984-13.707,0.799
						c0,0,0.267-0.23,0.032-0.392c-3.76,1.325-10.877,1.764-16.166,2.132c1.645-1.016,2.403-0.538,1.398-1.571
						c-2.371,0.146,0.694,1.659-4.037,1.948c-1.539-0.557-4.952-1.043-5.405-2.146l4.464-0.06c-2.286-1.427-5.778,0.049-8.13-0.199
						l0.301-0.623c-6.841,0.202-6.936,1.774-14.288,1.661l0.76,0.473c-4.017,1.556-3.368-0.876-7.376,0.281l-1.213-1.579
						c-2.651,0.381-9.286,1.526-14.041,1.823c2.694-1.171,8.257-1.77,11.7-2.465c-2.628-0.012-8.931,0.116-10.3,0.896
						c1.059-0.152,2.393-0.539,3.439-0.296c-3.224,1.241-7.466,1.852-12.703,1.824c0.304-1.001-1.051-1.43-3.144-1.637
						c-0.801-0.103-2.869-0.151-4.757-0.188C7.33,2.829,5.267,2.788,3.272,2.749c-0.06,2.042-0.156,4.002-0.34,5.734
						c-0.092,0.866-0.206,1.677-0.348,2.413c-0.071,0.368-0.149,0.717-0.236,1.045c-0.047,0.166-0.092,0.324-0.135,0.475
						c-0.047,0.095-0.096,0.18-0.148,0.263c1.132,9.264-0.484,18.377-0.302,29.17c2.382-3.828,0.068,3.151,2.513,2.488
						c0.157,2.514,0.117,3.472-0.042,3.697l-1.461,7.618c-0.712,1.806-0.539-2.391-1.088-2.16C1.499,58.995,0.649,55.801,0,59.443
						c0.875-0.747,1.253,1.914,0.919,5.051l1.128-4.418c1.302,7.692-2.053,6.648-0.764,14.401l-0.77-2.452
						c0.223,1.957,0.223,5.54,0.399,9.136c0.044,0.899,0.099,1.799,0.171,2.674c0.072,1.491,0.162,3.105,0.275,4.471
						c0.226,2.786,0.546,4.998,1.01,6.17c0.193-0.031,0.329-0.062,0.462-0.094c0.821,0.282,2.005,0.951-1.299,1.128
						c2.096,0.037,4.312,0.032,6.555-0.003c1.118-0.024,2.245-0.048,3.379-0.073l1.596-0.05l0.953-0.058
						c2.545-0.163,5.125-0.396,7.638-0.6c5.026-0.408,9.788-0.702,13.483-0.097l-0.721,0.598c1.774-0.173,3.088-1.124,5.309-0.522
						c-0.115,0.247-0.715,0.597,0.107,0.632c0.939-0.206,4.712-1.048,7.063-0.699l-2.009,0.673
						c9.274,0.783,14.233-1.639,22.01-2.049c-0.02,1.761,7.278,2.333,10.92,2.618l-0.127,0.249
						c10.799,0.218,18.344-1.459,28.345-2.15c6.208,1.911,21.029,0.8,31.005,1.872c-1.525-0.32,0.248-1.372,2.022-1.549
						c2.341,0.356,6.472-1.222,6.101,0.394l-0.835-0.031c1.764,1.584,6.576,1.162,10.333,1.206l0.62-2.112
						c9.827,3.072,25.749-1.129,31.112,1.623c2.371-0.528,5.309-0.522,7.66-1.05l-0.127,1.133c6.571,0.289,9.851,0.431,17.973,0.161
						l-1.656,0.81c4.581,0.072,5.784-3.266,10.01-3.332l1.271,1.69c7.992-0.026,16.082,1.458,23.979-0.075
						c-0.13,0.247-0.365,0.736-1.659,0.805c3.762,0.044,14.552,1.144,13.186-1.176c0.094,1.511,8.246,0.148,12.562-0.518
						l-0.672,1.114c3.643-1.424,3.76-1.814,8.847-2.208c1.206,0.145,1.056,0.892-0.545,0.607c4.017,0.584,3.131-1.056,8.001-0.462
						l-1.815,0.712c4.134,0.086,3.805-0.296,6.081-1.126c2.599-0.447,7.841,0.281,8.451,1.289c0.557-0.614,2.821-1.436,5.257-1.146
						c0.329,0.381-0.558,0.617-1.004,0.732c6.912,0.759,10.277-1.296,15.031-0.201c0.099,0.369,0.409,0.554,0.803,0.665
						c-5.491-0.028-9.913-0.088-9.499-0.169c0,1.028,4.435,1.208,0.907,2.627c3.561-0.774,9.648-2.458,13.971-1.975
						c0.21,0.1,0.414,0.197,0.572,0.356l-0.447,0.115c0.998,0.102,1.891,0.007,2.733-0.166c1.38,0.169,2.256,0.294,3.581,0.31
						c0.512,0.85,5.086,0.458,7.298,0.499c-0.183-1.124,2.713-0.944,0-1.872c0.351,0.081-0.418,0.135-1.888,0.182
						c-0.333,0.033-0.724,0.05-0.943,0.116c0.043-0.031,0.095-0.066,0.151-0.099c-1.452,0.02-3.346,0.046-5.497,0.075
						c1.747-0.571,3.573-1.052,6.018-0.428c1.135-0.723,2.384-1.466,3.088-1.814c3.026,1.568,8.86,2.416,9.672,3.383
						c6.753-0.631,15.908-0.416,20.154-2.528c1.921-0.272,2.208,0.606,2.925,0.938c-1.109,0.212-2.427,0.18-3.026,0.483
						c3.838-0.542,11.374-0.211,12.29-1.686c4.839,0.666-2.719,1.358,3.929,1.117l-0.898,0.451
						c13.079,2.358,21.264-3.767,35.764-0.739c-1.004-0.186-1.507-0.272-1.712-0.519c16.532,1.335,34.068-1.253,50.38,0.864
						c4.637,0.427,5.139-0.516,7.969-1.232l1.004,1.208l4.839-1.394c6.861-1.02,11.881,2.964,20.568,1.034l-1.121-0.814
						c3.12,0.153,9.882-0.48,9.361,0.456c0.319-0.148,1.023-0.847,2.242-0.422l0.095,0.632l7.664-1.083
						c5.941,0.457-0.93,2.509,7.74,2.632c3.223-0.243,9.177-1.84,7.967-2.263c-1.301-0.031-3.323-0.394-3.42-1.027l2.948-0.329
						c0.534-1.862,2.801-3.77-4.434-5.07l-5.042,1.139l-1.624-0.903l4.243-0.057c-2.407-0.85-3.933-0.098-5.641,0.418
						c-0.405-0.48-1.112-0.816-2.113-0.995l-4.95,1.778c-0.6-0.728,2.22-1.445-1.102-1.848c-2.319,0.826,2.224,1.634-1.615,2.176
						c-2.412-0.846-1.708-1.536-4.538-0.812c-0.398-0.48,0.202-0.785,1.324-0.996c-2.52,0.575-6.669,0.243-7.969,1.233
						c-2.514-1.045-8.508,0.272-8.259-1.491c-0.792,0.422-4.438,1.384-6.753,1.457c4.228-2.11-8.664-0.124-7.546-2.387
						c-3.129,1.898-11.304,0.843-16.847,1.896c0.31-0.15,0.919-0.456,1.408-0.359c-3.12-0.158-4.027-0.73-6.031-1.088
						c-0.401,1.567-5.26,1.926-7.879,2.892c-3.824-1.512,2.323-1.841,1.122-3.293c0.192,1.27-6.645,1.268-5.344,2.326
						c-2.925-0.936-2.52-0.454-4.027-1.754c-0.513,1.96-2.723,0.333-5.149,1.536c-4.232-0.966-1.09-1.836-5.739-1.24
						C428.685,84.683,432.82,83.989,432.82,83.989z M322.244,87.377c0-0.011,0-0.022,0-0.022c0.952-0.027,1.764-0.049,2.283-0.064
						C324.051,87.309,323.392,87.334,322.244,87.377z M312.951,87.395c1.131,0.044,2.54,0.052,4.031,0.044
						c0.326,0.388-0.027,0.788-0.962,0.768C316.527,87.947,314.337,87.723,312.951,87.395z M332.606,95.187
						c-1.47,0.159-1.963-0.062-2.165-0.292c0.695-0.02,1.507-0.058,2.572-0.135c0.043-0.042,0.131-0.09,0.174-0.138
						C333.047,94.837,332.887,95.039,332.606,95.187z"/>
					<path fill="#202020" d="M335.251,93.712c0.212-0.025,0.33-0.072,0.606-0.082c-0.301-0.1-0.586-0.184-0.878-0.253
						c-0.179,0.121-0.362,0.245-0.521,0.352C334.726,93.724,335.002,93.718,335.251,93.712z"/>
					<path fill="#202020" d="M435.618,4.276l-0.196-0.026c0.163,0.044,0.313,0.089,0.411,0.16
						C435.703,4.356,435.703,4.32,435.618,4.276z"/>
					<polygon fill="#202020" points="184.637,85.243 184.65,85.528 185.462,85.279 					"/>
					<path fill="#202020" d="M486.798,8.135c0.098,0.099,0.29,0.201,0.672,0.287C487.44,8.349,487.15,8.247,486.798,8.135z"/>
					<path fill="#202020" d="M508.905,8.387l3.127,0.4C510.679,8.56,509.693,8.451,508.905,8.387z"/>
					<path fill="#202020" d="M525.903,8.944c0.215-0.197,0.276-0.346,0.333-0.482c-0.013-0.003-0.023-0.005-0.033-0.007
						L525.903,8.944z"/>
					<path fill="#202020" d="M255.642,10.266c-0.228,0.006-0.454,0.022-0.656,0.051C253.448,10.534,254.493,10.448,255.642,10.266z"
						/>
					<path fill="#202020" d="M336.069,7.639c-0.853,0.204-1.695,0.404-2.586,0.531C334.915,8.256,336.028,8.278,336.069,7.639z"/>
					<path fill="#202020" d="M165.833,11.619c0.009-0.007,0-0.01,0.009-0.02c-0.192,0-0.362,0-0.554,0L165.833,11.619z"/>
					<path fill="#202020" d="M329.744,8.15c1.432,0.225,2.628,0.176,3.74,0.02C332.309,8.095,330.927,7.98,329.744,8.15z"/>
					<path fill="#202020" d="M532.48,69.535l-0.046,0.819c0.074-0.013,0.135,0.035,0.181,0.098L532.48,69.535z"/>
					<path fill="#202020" d="M532.615,70.451l0.133,0.91C532.748,70.943,532.739,70.581,532.615,70.451z"/>
					<path fill="#202020" d="M533.031,73.275l-0.283-1.914C532.745,72.023,532.71,72.841,533.031,73.275z"/>
					<path fill="#202020" d="M533,47.033l-0.408-0.258C532.676,46.916,532.809,47.007,533,47.033z"/>
					<path fill="#202020" d="M532.882,40.195c-0.093,1.631-0.87,4.092-0.614,6.368l0.324,0.212
						C531.986,45.706,533.57,41.745,532.882,40.195z"/>
					<path fill="#202020" d="M537.922,11.425c0,0-0.082,1.547-0.163,3.093c-0.081,1.432-0.163,2.865-0.163,2.865
						c0.434-1.002,1.018-2.319,1.123,0.287c0.648-3.611,0.405-3.239,0.022-2.902c-0.192,0.169-0.418,0.328-0.586-0.024
						c-0.084-0.176-0.153-0.48-0.196-0.974c-0.021-0.247-0.036-0.542-0.043-0.892c-0.001-0.185-0.002-0.385-0.004-0.6
						C537.916,12.014,537.919,11.73,537.922,11.425z"/>
					<path fill="#202020" d="M523.927,3.383c3.078-0.202-0.036-0.631,0.127-0.876C522.101,2.902,521.628,3.002,523.927,3.383z"/>
					<path fill="#202020" d="M395.531,3.379l0.31-1.023C393.468,2.503,395.818,2.752,395.531,3.379z"/>
					<polygon fill="#202020" points="370.987,8.667 373.297,9.303 374.396,8.365 					"/>
					<polygon fill="#202020" points="356.488,1.379 357.525,1.232 353.566,1.604 					"/>
					<path fill="#202020" d="M140.85,1.742l0.717,1.26C143.171,2.776,143.507,1.36,140.85,1.742z"/>
					<path fill="#202020" d="M47.758,3.026c-1.014-0.63-3.633-1.035-5.246-0.416C44.604,2.696,46.692,3.188,47.758,3.026z"/>
					<polygon fill="#202020" points="159.948,95.349 158.075,95.771 161.604,95.419 					"/>
				</g>
			</g>
		</g>
	</g>
</g>
</svg>
