<?xml version="1.0" encoding="utf-8"?>
<!-- Generator: Adobe Illustrator 17.0.0, SVG Export Plug-In . SVG Version: 6.00 Build 0)  -->
<!DOCTYPE svg PUBLIC "-//W3C//DTD SVG 1.1//EN" "http://www.w3.org/Graphics/SVG/1.1/DTD/svg11.dtd">
<svg version="1.1" id="Layer_1" xmlns="http://www.w3.org/2000/svg" xmlns:xlink="http://www.w3.org/1999/xlink" x="0px" y="0px"
	 width="158.764px" height="170.373px" viewBox="0 0 158.764 170.373" enable-background="new 0 0 158.764 170.373"
	 xml:space="preserve">
<g>
	<g>
		<linearGradient id="SVGID_1_" gradientUnits="userSpaceOnUse" x1="13.5677" y1="92.6644" x2="127.4027" y2="92.6644">
			<stop  offset="0" style="stop-color:#FBB03B"/>
			<stop  offset="1" style="stop-color:#C1272D"/>
		</linearGradient>
		<path fill="url(#SVGID_1_)" d="M16.376,155.857c8.573-6.456,10.393-16.667,11.211-26.803c0.379-4.702,0.408-9.424,0.858-14.121
			c0.653-6.821,2.676-13.812,4.129-20.506c5.419-24.965,13.611-52.806,38.175-65.09c10.446-5.224,22.521-5.44,33.498-1.944
			c6.165,1.963,22.88,9.061,15.33,17.287c-6.601,7.191-17.282,11.075-25.815,15.394c-9.424,4.77-19.991,8.184-28.476,14.583
			c-15.394,11.609-11.627,32.162-5.165,47.808c7.226,17.494,19.042,33.773,32.983,46.545c4.744,4.346,11.835-2.706,7.071-7.071
			c-16.339-14.969-32.516-36.834-35.429-59.375c-0.597-4.62-0.748-9.995,1.387-14.251c2.291-4.566,7.199-7.301,11.525-9.597
			c9.454-5.018,19.453-9.125,29.021-13.961c8.348-4.219,17.731-8.864,23.03-16.907c5.696-8.645-0.648-17.074-7.509-22.357
			c-19.233-14.809-46.836-13.149-65.78,0.933c-19.591,14.562-27.453,39.18-32.736,61.981c-2.53,10.917-5.135,21.969-5.683,33.185
			c-0.377,7.715,0.31,20.375-6.672,25.633C6.245,151.051,11.22,159.74,16.376,155.857L16.376,155.857z"/>
	</g>
</g>
<g>
	<g>
		<path d="M103.273,103.361c-6.3,12.348-11.657,27.163-5.847,40.665c5.383,12.51,21.752,15.24,33.786,14.406
			c11.579-0.803,27.499-6.059,25.641-20.58c-1.889-14.762-23.145-12.435-33.689-12.377c0.443,3.274,0.886,6.548,1.329,9.821
			c9.504-3.786,36.099-5,34.172-20.515c-1.011-8.142-9.744-9.731-16.554-10.58c-7.654-0.955-15.348-0.88-23.045-0.857
			c-6.448,0.019-6.45,10.019,0,10c5.521-0.016,11.03-0.055,16.546,0.256c3.063,0.172,6.103,0.482,9.112,1.092
			c1.166,0.236,2.436,0.512,3.525,1.006c1.217,0.552,0.637,0.853,0.502-0.238c0.372,2.991-9.61,5.495-11.821,6.148
			c-4.957,1.463-10.285,2.131-15.094,4.047c-4.982,1.985-4.687,9.855,1.329,9.821c3.741-0.021,23.12-2.067,23.824,3.433
			c1.076,8.413-12.906,9.468-18.535,9.669c-8.174,0.292-19.327-1.397-22.58-10.13c-3.598-9.66,1.697-21.537,6.035-30.039
			C114.832,102.677,106.204,97.615,103.273,103.361L103.273,103.361z"/>
	</g>
</g>
<g>
	<g>
		<path d="M28.524,4.819c0.236,3.868,0.745,7.698,1.161,11.548c0.22,2.03,0.69,4.549-0.401,6.39
			c-1.26,2.127-6.548,2.607-8.586,2.757c-5.265,0.388-10.593-0.228-15.862-0.285c-6.451-0.069-6.445,9.931,0,10
			c10.086,0.108,24.212,2.677,31.902-5.871c5.769-6.412,2.249-16.962,1.787-24.539C38.134-1.587,28.132-1.625,28.524,4.819
			L28.524,4.819z"/>
	</g>
</g>
</svg>
